<svg xmlns="http://www.w3.org/2000/svg" viewBox="0 0 1200 800" role="img" aria-labelledby="title desc">
  <title id="title">A riverside after the rain</title>
  <desc id="desc">Sunlight breaks through clouds across a wet path and a quiet river.</desc>
  <defs>
    <linearGradient id="sky" x1="0" y1="0" x2="0" y2="1"><stop stop-color="#526677"/><stop offset=".58" stop-color="#9b8790"/><stop offset="1" stop-color="#e5aa76"/></linearGradient>
    <linearGradient id="water" x1="0" y1="0" x2="0" y2="1"><stop stop-color="#476b72"/><stop offset="1" stop-color="#253f46"/></linearGradient>
    <linearGradient id="path" x1="0" y1="0" x2="1" y2="1"><stop stop-color="#706b65"/><stop offset="1" stop-color="#444947"/></linearGradient>
    <filter id="blur"><feGaussianBlur stdDeviation="12"/></filter>
  </defs>
  <rect width="1200" height="800" fill="url(#sky)"/>
  <path d="M0 0h1200v155c-110 35-210 30-300-20-130-72-245-60-350 15-147 105-320 76-550 12Z" fill="#344958" opacity=".72"/>
  <path d="M0 195c180 24 330-8 452-95 95-68 215-55 330 5 126 66 266 73 418 28v150H0Z" fill="#637583" opacity=".58"/>
  <ellipse cx="838" cy="286" rx="120" ry="84" fill="#f3c08a" opacity=".55" filter="url(#blur)"/>
  <path d="M0 420c210-30 365-15 515 20 172 41 357 22 685-32v392H0Z" fill="url(#water)"/>
  <path d="M670 435c155 7 294-7 530-46v65c-190 32-367 48-530 33Z" fill="#efc598" opacity=".3"/>
  <path d="M0 500c175-60 316-50 458-4L310 800H0Z" fill="url(#path)"/>
  <path d="M0 535c152-58 292-45 426-5" fill="none" stroke="#a69a8b" stroke-width="8" opacity=".52"/>
  <path d="M496 418v382" stroke="#293b37" stroke-width="12"/>
  <path d="M522 418v382" stroke="#293b37" stroke-width="12"/>
  <path d="M470 462h78M470 530h78M470 598h78M470 666h78" stroke="#293b37" stroke-width="8"/>
  <g fill="#243e36">
    <path d="M0 360c70-126 164-135 256 0Z"/>
    <path d="M135 405c90-174 214-182 320 0Z"/>
    <path d="M930 390c80-145 183-151 270 0Z"/>
  </g>
  <g transform="translate(236 455)">
    <circle cx="0" cy="0" r="16" fill="#242b2c"/>
    <path d="M-5 18 10 100M7 55l32 30M1 45l-30 34M10 100l28 57M10 100l-20 62" fill="none" stroke="#242b2c" stroke-width="13" stroke-linecap="round"/>
    <path d="M-45 0c8-58 94-58 104 0Z" fill="#b65f4c"/>
    <path d="M7 0v54" stroke="#242b2c" stroke-width="5"/>
  </g>
  <g opacity=".55" fill="#d8e0dd">
    <circle cx="150" cy="455" r="5"/><circle cx="334" cy="404" r="4"/><circle cx="606" cy="365" r="5"/><circle cx="742" cy="392" r="4"/><circle cx="1030" cy="350" r="5"/>
  </g>
</svg>
