<svg xmlns="http://www.w3.org/2000/svg" width="1600" height="140" viewBox="0 0 1600 140" preserveAspectRatio="none">
  <defs>
    <linearGradient id="edge" x1="0" y1="0" x2="0" y2="1"><stop stop-color="#b27a4b"/><stop offset=".08" stop-color="#72462d"/><stop offset=".42" stop-color="#51301f"/><stop offset=".77" stop-color="#2d1a13"/><stop offset="1" stop-color="#120d0a"/></linearGradient>
    <filter id="grain"><feTurbulence type="fractalNoise" baseFrequency=".055 .012" numOctaves="3" seed="11" result="n"/><feColorMatrix in="n" values=".5 0 0 0 .2 .2 0 0 0 .08 .06 0 0 0 .03 0 0 0 .45 0" result="w"/><feBlend in="SourceGraphic" in2="w" mode="multiply"/></filter>
    <pattern id="rings" width="420" height="140" patternUnits="userSpaceOnUse"><path d="M-30 34C80 6 170 74 280 34S470 8 520 46M-50 76C80 36 196 115 320 68s190-7 250 20M-20 112c110-42 210 20 360-15s205 1 270 22" fill="none" stroke="#e0b17e" stroke-opacity=".10" stroke-width="2"/><path d="M-30 48C90 18 172 91 290 51s202-11 258 21M-10 124c125-34 207 15 355-17s202 5 258 22" fill="none" stroke="#160e0a" stroke-opacity=".42" stroke-width="3"/></pattern>
  </defs>
  <rect width="1600" height="140" fill="url(#edge)" filter="url(#grain)"/>
  <rect width="1600" height="140" fill="url(#rings)"/>
  <path d="M0 3H1600" stroke="#e6bb89" stroke-opacity=".48" stroke-width="5"/><path d="M0 132H1600" stroke="#060504" stroke-opacity=".75" stroke-width="12"/>
</svg>
