<svg xmlns="http://www.w3.org/2000/svg" width="1600" height="760" viewBox="0 0 1600 760" preserveAspectRatio="none">
  <defs>
    <linearGradient id="base" x1="0" y1="0" x2="1" y2="0">
      <stop offset="0" stop-color="#251711"/><stop offset=".14" stop-color="#3a2419"/><stop offset=".31" stop-color="#1c120e"/><stop offset=".48" stop-color="#493020"/><stop offset=".63" stop-color="#24150f"/><stop offset=".82" stop-color="#42291b"/><stop offset="1" stop-color="#1b110d"/>
    </linearGradient>
    <radialGradient id="glow" cx="52%" cy="15%" r="90%"><stop offset="0" stop-color="#a57045" stop-opacity=".20"/><stop offset=".55" stop-color="#5b3824" stop-opacity=".08"/><stop offset="1" stop-color="#080706" stop-opacity=".55"/></radialGradient>
    <filter id="grain" x="-10%" y="-10%" width="120%" height="120%">
      <feTurbulence type="fractalNoise" baseFrequency=".004 .065" numOctaves="3" seed="23" result="noise"/>
      <feColorMatrix in="noise" values=".65 0 0 0 .18 .22 0 0 0 .08 .08 0 0 0 .03 0 0 0 .52 0" result="wood"/>
      <feBlend in="SourceGraphic" in2="wood" mode="soft-light"/>
    </filter>
    <pattern id="fine" width="94" height="760" patternUnits="userSpaceOnUse">
      <path d="M12 0C30 110-5 210 18 330S6 590 28 760M43 0C28 130 62 245 37 380s17 245 4 380M73 0c18 120-20 245 3 355s-8 270 10 405" fill="none" stroke="#d2a06a" stroke-opacity=".075" stroke-width="2"/>
      <path d="M2 0c9 130-11 252 4 390S0 626 15 760M58 0c-9 155 14 260-3 420s12 230 2 340" fill="none" stroke="#060504" stroke-opacity=".35" stroke-width="3"/>
    </pattern>
  </defs>
  <rect width="1600" height="760" fill="url(#base)" filter="url(#grain)"/>
  <rect width="1600" height="760" fill="url(#fine)"/>
  <rect width="1600" height="760" fill="url(#glow)"/>
  <path d="M0 67H1600M0 312H1600M0 589H1600" stroke="#d7ac7a" stroke-opacity=".045"/>
  <rect x="0" y="0" width="1600" height="760" fill="none" stroke="#0b0806" stroke-opacity=".55" stroke-width="18"/>
</svg>
